<?xml version="1.0" standalone="no"?>
<!DOCTYPE svg PUBLIC "-//W3C//DTD SVG 20010904//EN"
 "http://www.w3.org/TR/2001/REC-SVG-20010904/DTD/svg10.dtd">
<svg version="1.0" xmlns="http://www.w3.org/2000/svg"
 width="512.000000pt" height="512.000000pt" viewBox="0 0 512.000000 512.000000"
 preserveAspectRatio="xMidYMid meet">

<g transform="translate(0.000000,512.000000) scale(0.100000,-0.100000)"
fill="aqua" stroke="none">
<path d="M2310 5109 c-323 -32 -669 -132 -927 -269 -108 -58 -256 -149 -298
-184 l-30 -25 203 -1 202 0 88 44 c177 89 397 158 623 197 116 20 167 23 384
23 225 -1 265 -3 395 -27 434 -78 810 -251 1119 -515 51 -44 104 -82 118 -85
46 -9 86 12 150 75 l63 62 0 -462 0 -462 -462 0 -462 0 96 98 c52 53 99 108
103 120 21 70 -26 128 -199 242 -365 243 -829 331 -1263 240 -101 -21 -254
-70 -315 -101 l-38 -19 0 -120 c0 -66 2 -120 5 -120 3 0 38 16 77 36 361 182
850 183 1228 3 102 -49 230 -125 230 -138 0 -3 -66 -72 -147 -154 -146 -146
-148 -148 -148 -192 0 -37 6 -50 33 -77 l32 -33 668 -2 c395 -1 682 2 704 8
20 5 46 21 57 36 21 25 21 35 21 718 0 679 0 693 -20 718 -24 30 -80 51 -112
42 -13 -4 -80 -64 -151 -133 -97 -97 -130 -124 -141 -117 -7 6 -51 39 -96 74
-335 259 -756 430 -1215 491 -113 15 -462 21 -575 9z"/>
<path d="M573 1848 c-17 -4 -41 -20 -52 -34 -21 -26 -21 -35 -21 -719 0 -679
0 -693 20 -718 24 -30 78 -50 112 -42 14 4 80 62 149 131 68 68 127 124 131
124 5 0 47 -31 96 -69 364 -287 825 -464 1337 -511 496 -46 1053 72 1466 310
101 58 259 163 259 173 0 4 -88 7 -195 7 l-195 0 -78 -39 c-192 -96 -422 -170
-657 -212 -154 -27 -445 -36 -610 -20 -478 48 -916 233 -1289 545 -49 41 -100
76 -114 79 -45 9 -85 -12 -149 -75 l-63 -62 0 462 0 462 462 0 462 0 -96 -97
c-52 -54 -99 -109 -103 -121 -21 -69 24 -125 190 -237 449 -302 1058 -365
1548 -160 l87 37 0 119 c0 65 -4 119 -9 119 -4 0 -51 -20 -102 -44 -182 -87
-376 -128 -594 -128 -230 0 -423 41 -615 133 -102 49 -230 125 -230 138 0 3
66 72 147 154 146 146 148 148 148 192 0 37 -6 50 -33 77 l-32 33 -673 1
c-369 1 -686 -3 -704 -8z"/>
</g>
</svg>
