<?xml version="1.0" standalone="no"?>
<!DOCTYPE svg PUBLIC "-//W3C//DTD SVG 20010904//EN"
 "http://www.w3.org/TR/2001/REC-SVG-20010904/DTD/svg10.dtd">
<svg version="1.0" xmlns="http://www.w3.org/2000/svg"
 width="512.000000pt" height="512.000000pt" viewBox="0 0 512.000000 512.000000"
 preserveAspectRatio="xMidYMid meet">

<g transform="translate(0.000000,512.000000) scale(0.100000,-0.100000)"
fill="aqua" stroke="none">
<path d="M2412 5100 c-109 -29 -187 -74 -272 -160 -87 -86 -131 -163 -160
-276 -19 -73 -20 -113 -20 -791 l0 -713 -713 0 c-678 0 -718 -1 -791 -20 -113
-29 -190 -73 -276 -160 -87 -86 -131 -163 -160 -276 -25 -98 -25 -190 0 -288
29 -113 73 -190 160 -276 86 -87 163 -131 276 -160 73 -19 113 -20 791 -20
l713 0 0 -713 c0 -678 1 -718 20 -791 29 -113 73 -190 160 -276 86 -87 163
-131 276 -160 98 -25 190 -25 288 0 113 29 190 73 276 160 87 86 131 163 160
276 19 73 20 113 20 791 l0 713 713 0 c678 0 718 1 791 20 113 29 190 73 276
160 87 86 131 163 160 276 25 98 25 190 0 288 -29 113 -73 190 -160 276 -86
87 -163 131 -276 160 -73 19 -113 20 -791 20 l-713 0 0 713 c0 678 -1 718 -20
791 -11 43 -34 105 -52 139 -42 81 -164 203 -245 245 -132 69 -291 88 -431 52z
m282 -314 c62 -31 109 -80 140 -145 21 -45 21 -59 26 -861 5 -755 6 -817 23
-847 38 -71 -9 -67 897 -73 802 -5 816 -5 861 -26 66 -31 114 -78 146 -142 23
-47 28 -70 28 -132 -1 -124 -56 -214 -163 -267 l-57 -28 -815 -5 c-906 -6
-859 -2 -897 -73 -17 -30 -18 -92 -23 -847 -5 -802 -5 -816 -26 -861 -31 -66
-78 -114 -142 -146 -47 -23 -70 -28 -132 -28 -125 0 -222 62 -274 174 -21 45
-21 59 -26 861 -6 906 -2 859 -73 897 -30 17 -92 18 -847 23 -802 5 -816 5
-861 26 -66 31 -114 78 -146 142 -23 47 -28 70 -28 132 1 124 56 214 163 267
l57 28 815 5 c915 6 860 1 900 80 20 38 20 58 20 828 0 863 -1 846 59 929 84
116 243 154 375 89z"/>
</g>
</svg>
