<?xml version="1.0" standalone="no"?>
<!DOCTYPE svg PUBLIC "-//W3C//DTD SVG 20010904//EN"
 "http://www.w3.org/TR/2001/REC-SVG-20010904/DTD/svg10.dtd">
<svg version="1.0" xmlns="http://www.w3.org/2000/svg"
 width="512.000000pt" height="512.000000pt" viewBox="0 0 512.000000 512.000000"
 preserveAspectRatio="xMidYMid meet">

<g transform="translate(0.000000,512.000000) scale(0.100000,-0.100000)"
fill="#fff" stroke="none">
<path d="M2489 4957 c-60 -23 -96 -54 -123 -109 -31 -63 -34 -134 -7 -194 l18
-40 -72 -23 c-128 -39 -302 -158 -340 -232 -32 -61 -6 -142 54 -174 17 -8 55
-15 86 -15 l55 0 0 -69 0 -69 -47 -11 c-69 -18 -137 -88 -152 -159 -6 -29 -11
-66 -11 -81 l0 -28 -99 -11 c-180 -19 -305 -104 -376 -254 -32 -70 -41 -118
-204 -1134 -94 -583 -171 -1089 -171 -1123 0 -122 68 -257 169 -337 79 -62
147 -86 261 -93 l95 -6 3 -116 3 -116 -103 -5 c-113 -5 -144 -16 -196 -69 -92
-94 -60 -258 61 -315 l52 -24 1115 0 1115 0 52 24 c77 36 108 88 108 181 0 62
-4 77 -28 112 -44 64 -94 85 -209 91 l-98 5 0 118 0 119 80 0 c228 0 420 177
437 402 5 63 -19 226 -166 1143 -165 1026 -174 1073 -206 1143 -43 91 -117
167 -206 211 -52 25 -88 35 -166 43 l-101 11 -7 61 c-3 34 -13 76 -22 93 -23
49 -86 101 -138 114 l-45 11 0 69 0 69 58 0 c101 0 159 58 149 148 -6 54 -56
109 -164 182 -67 45 -213 110 -247 110 -13 0 -12 7 4 43 45 98 8 224 -82 280
-54 34 -135 44 -189 24z m116 -111 c38 -16 65 -60 65 -107 0 -22 -10 -41 -34
-65 -28 -28 -42 -34 -76 -34 -34 0 -48 6 -76 34 -24 24 -34 43 -34 65 0 46 26
90 63 106 41 18 50 18 92 1z m-1 -1071 c3 -8 3 -22 0 -30 -5 -12 -33 -15 -164
-15 -164 0 -189 6 -174 44 5 14 28 16 169 16 136 0 164 -3 169 -15z m-649
-492 c9 -59 46 -123 88 -154 21 -15 43 -29 49 -31 6 -2 -15 -54 -46 -116 -133
-266 -222 -558 -257 -842 -26 -220 30 -430 161 -596 45 -57 47 -61 29 -73 -43
-26 -59 -71 -59 -164 l0 -87 -192 2 c-193 3 -193 3 -196 26 -5 31 319 2044
331 2060 5 6 27 12 48 12 36 0 38 -2 44 -37z m1302 25 c16 -25 340 -2063 330
-2075 -7 -10 -59 -13 -198 -13 l-189 0 0 88 c0 92 -16 137 -58 163 -18 11 -16
16 30 77 132 174 185 373 159 592 -34 282 -124 578 -256 839 -31 62 -55 114
-53 115 2 2 20 13 41 25 49 30 83 82 97 149 12 52 12 52 50 52 21 0 42 -6 47
-12z m-348 -266 c16 -26 57 -104 90 -172 174 -368 262 -793 206 -1005 -27
-105 -89 -216 -164 -297 l-69 -73 -176 -3 -176 -3 0 45 c0 30 4 46 13 46 29 0
125 54 165 93 24 23 56 65 70 92 24 44 27 61 27 145 0 92 -1 98 -46 190 -60
125 -153 276 -200 323 -33 33 -42 37 -86 37 -37 0 -58 -6 -78 -22 -39 -30
-147 -200 -209 -326 -51 -105 -51 -107 -51 -202 0 -109 15 -148 88 -228 38
-41 142 -102 175 -102 8 0 12 -16 12 -46 l0 -45 -176 3 -176 3 -68 72 c-68 73
-138 191 -159 268 -50 188 -24 412 84 742 51 154 150 379 208 471 l27 42 319
0 319 0 31 -48z m-304 -1169 c24 -41 39 -79 39 -100 0 -79 -97 -113 -148 -52
-14 17 -26 36 -26 44 0 28 76 175 90 175 3 0 23 -30 45 -67z"/>
</g>
</svg>
