<?xml version="1.0" standalone="no"?>
<!DOCTYPE svg PUBLIC "-//W3C//DTD SVG 20010904//EN"
 "http://www.w3.org/TR/2001/REC-SVG-20010904/DTD/svg10.dtd">
<svg version="1.0" xmlns="http://www.w3.org/2000/svg"
 width="94.000000pt" height="94.000000pt" viewBox="0 0 94.000000 94.000000"
 preserveAspectRatio="xMidYMid meet">

<g transform="translate(0.000000,94.000000) scale(0.018359,-0.018359)"
fill="aqua" stroke="none">
<path d="M1499 3827 c-20 -8 -52 -23 -70 -35 -19 -11 -266 -254 -550 -539
-491 -493 -518 -521 -539 -578 -17 -48 -21 -75 -18 -132 9 -131 1 -122 575
-694 582 -580 563 -564 698 -564 98 0 158 25 227 92 65 64 92 129 92 223 0
128 -18 156 -276 416 l-221 224 1574 2 1574 3 52 24 c62 27 126 93 156 159 31
68 30 197 -2 269 -26 59 -99 132 -157 160 -37 17 -119 18 -1618 21 l-1579 2
224 228 c265 267 274 280 274 417 0 75 -4 97 -24 135 -32 62 -86 117 -146 148
-61 31 -187 41 -246 19z"/>
</g>
</svg>
